<?xml version="1.0" encoding="UTF-8"?>
<svg version="1.1" xmlns="http://www.w3.org/2000/svg" width="2142" height="830">
<path d="M0 0 C65.34 0 130.68 0 198 0 C205.92 31.35 213.84 62.7 222 95 C229.05022519 122.46453994 229.05022519 122.46453994 236.11328125 149.92578125 C242.88756981 176.27429788 249.52526153 202.65768676 256.17407227 229.03808594 C262.10626577 252.57687926 262.10626577 252.57687926 268.109375 276.09765625 C268.39371399 277.21418076 268.67805298 278.33070526 268.9710083 279.48106384 C269.35612579 280.9716909 269.35612579 280.9716909 269.74902344 282.49243164 C269.96862732 283.34744766 270.1882312 284.20246368 270.41448975 285.08338928 C270.83268394 286.98923857 270.83268394 286.98923857 272 288 C272.27465591 286.92199127 272.54931183 285.84398254 272.83229065 284.73330688 C285.77441649 233.93703644 298.71921935 183.1414603 311.70749187 132.35696602 C312.87281638 127.80050636 314.03800623 123.24401227 315.203125 118.6875 C315.54958289 117.33262293 315.54958289 117.33262293 315.90303993 115.9503746 C319.56985724 101.60931239 323.22637441 87.26564159 326.87906265 72.92097473 C328.55984763 66.32119407 330.24179298 59.72170901 331.92370415 53.12221527 C333.54250268 46.76967621 335.1592804 40.41662714 336.77459717 34.0632019 C337.76831749 30.15662765 338.76391895 26.25053467 339.76004791 22.34457397 C340.22397825 20.52375839 340.68709955 18.70273645 341.14937592 16.88150024 C341.78026647 14.39637157 342.41394602 11.91197066 343.04833984 9.42773438 C343.2330868 8.69712044 343.41783375 7.9665065 343.60817909 7.21375275 C344.88592134 2.22815732 344.88592134 2.22815732 346 0 C411.01 0 476.02 0 543 0 C543 159.39 543 318.78 543 483 C502.41 483 461.82 483 420 483 C419.505 305.79 419.505 305.79 419 125 C400.87969039 195.88714254 400.87969039 195.88714254 382.81659317 266.78878403 C380.1745459 277.17851627 377.53077586 287.56781033 374.88671875 297.95703125 C374.44957833 299.67470168 374.44957833 299.67470168 374.0036068 301.42707253 C369.91300142 317.49906649 365.81450864 333.56902849 361.70703125 349.63671875 C361.33238235 351.10229501 361.33238235 351.10229501 360.95016479 352.59747887 C358.53251938 362.05433927 356.11370152 371.51089927 353.69364548 380.96714306 C349.26112728 398.28818413 344.83741593 415.61128063 340.4593029 432.94616508 C339.84185731 435.39078373 339.22402898 437.83530534 338.60609436 440.27980042 C336.89523808 447.04890494 335.18556668 453.81828549 333.48479366 460.58993149 C332.97605736 462.61346026 332.46580987 464.63660056 331.95487976 466.65957642 C331.33987233 469.09513148 330.7275055 471.53135541 330.11824036 473.96835327 C329.71770699 475.55035019 329.71770699 475.55035019 329.30908203 477.16430664 C328.96346725 478.53915977 328.96346725 478.53915977 328.61087036 479.94178772 C328 482 328 482 327 483 C325.54518505 483.0956161 324.08574514 483.12188351 322.62779236 483.12025452 C321.68403244 483.12162918 320.74027252 483.12300385 319.76791382 483.12442017 C318.72422638 483.12082489 317.68053894 483.11722961 316.60522461 483.11352539 C315.51267868 483.11367142 314.42013275 483.11381744 313.29447937 483.1139679 C309.66374767 483.11326822 306.03306654 483.10547329 302.40234375 483.09765625 C299.89270557 483.09579226 297.38306702 483.09436827 294.87342834 483.09336853 C288.93065407 483.08993348 282.98789616 483.08204273 277.04513031 483.07201904 C269.61798075 483.05976253 262.19082895 483.05437792 254.76367188 483.04882812 C241.50910527 483.03808811 228.25455379 483.02120082 215 483 C204.90951553 443.85606443 194.89010284 404.69507445 185 365.5 C178.05961882 337.99521503 171.06780444 310.50471887 163.99181747 283.03451157 C156.10830283 252.42702854 148.35093358 221.78815564 140.62633324 191.14020634 C139.68788031 187.41714328 138.74887233 183.69422029 137.80986786 179.97129631 C137.18188158 177.48019297 136.55490451 174.98883748 135.92803955 172.49745178 C132.01572756 156.98116324 127.99877675 141.49525992 124 126 C123.67 243.81 123.34 361.62 123 483 C82.41 483 41.82 483 0 483 C0 323.61 0 164.22 0 0 Z " fill="#00A651" transform="translate(48,96)"/>
<path d="M0 0 C44.570625 -0.061875 89.14125 -0.12375 135.0625 -0.1875 C149.10562744 -0.21481201 163.14875488 -0.24212402 177.61743164 -0.27026367 C194.84265137 -0.28381348 194.84265137 -0.28381348 202.92137146 -0.28633118 C208.53123302 -0.28911199 214.14100342 -0.30004453 219.75083923 -0.31672668 C226.2403349 -0.33599574 232.72974413 -0.34446802 239.21926853 -0.34033485 C242.52995332 -0.33854874 245.84029308 -0.34286209 249.15096676 -0.35764539 C289.85396598 -0.53079241 332.81862541 6.01823615 365 33 C365.89589844 33.721875 366.79179687 34.44375 367.71484375 35.1875 C390.47830527 54.52174565 403.13392278 83.00710326 408 112 C408.17732666 113.04196533 408.35465332 114.08393066 408.53735352 115.1574707 C410.05707744 125.12055624 410.3401883 134.91455619 410.31567383 144.97729492 C410.3125241 147.66692102 410.33603665 150.35543138 410.36132812 153.04492188 C410.49167993 188.68464991 400.75512182 224.72076671 377 252 C375.82050781 253.41345703 375.82050781 253.41345703 374.6171875 254.85546875 C346.45707731 287.3446705 302.39740948 299.61331494 261 303 C247.12248164 303.97076176 233.26499137 304.1373407 219.359375 304.09765625 C217.592611 304.0961797 215.82584656 304.0951634 214.05908203 304.09460449 C207.62271453 304.08943416 201.1863565 304.07547375 194.75 304.0625 C180.3125 304.041875 165.875 304.02125 151 304 C151 363.07 151 422.14 151 483 C101.17 483 51.34 483 0 483 C0 323.61 0 164.22 0 0 Z M151 99 C151 133.98 151 168.96 151 205 C203.51681453 207.83412165 203.51681453 207.83412165 251 186.8125 C261.8529328 175.19234957 264.61846548 162.39408528 264.3125 147.03125 C263.7351407 134.17538292 257.9713075 122.17994256 249 113 C229.08290864 96.99225508 204.01754585 98.59162997 179.9375 98.8125 C170.388125 98.874375 160.83875 98.93625 151 99 Z " fill="#00A651" transform="translate(1703,141)"/>
<path d="M0 0 C15.92907759 15.64515591 25.61532303 38.37449808 28.26831055 60.42993164 C28.27874248 62.42990443 28.27973309 64.42996426 28.26831055 66.42993164 C12.09913498 67.79628874 -4.07176318 68.95059638 -20.27294922 69.86254883 C-23.6925029 70.05625225 -27.11148222 70.25855771 -30.53051758 70.46118164 C-42.94634934 71.1777052 -55.29519059 71.62891562 -67.73168945 71.42993164 C-67.89731888 70.88309723 -68.0629483 70.33626282 -68.2335968 69.77285767 C-72.59776814 55.42553218 -77.05056473 43.68471828 -90.93481445 36.25024414 C-103.94191108 30.34967382 -120.22485105 29.6898205 -133.73168945 34.17993164 C-140.11185872 36.79383359 -144.70899706 40.0849907 -147.9699707 46.41430664 C-150.05272797 51.9256028 -150.62685015 57.29238909 -148.16918945 62.74243164 C-142.61345779 72.05810292 -132.54668246 75.23946946 -122.53491211 77.82958984 C-117.40621259 79.09768564 -112.26142633 80.29499055 -107.11260986 81.47842407 C-101.49931764 82.77078526 -95.89504306 84.101137 -90.2902832 85.42993164 C-89.19288818 85.68954178 -88.09549316 85.94915192 -86.96484375 86.21662903 C-50.52501754 94.87108775 -12.2180962 104.41661278 15.26831055 131.42993164 C15.96569336 132.11442383 16.66307617 132.79891602 17.3815918 133.50415039 C34.98449745 151.99574642 40.08530914 176.66616513 39.54956055 201.39086914 C38.50521794 229.37054824 25.20163601 254.60420801 5.21362305 273.81274414 C-21.23475133 297.31461527 -57.44609663 306.48642302 -92.2043457 306.63305664 C-93.28509872 306.63875671 -94.36585175 306.64445679 -95.47935486 306.65032959 C-97.76275674 306.65973049 -100.04617189 306.6662939 -102.32958984 306.67016602 C-105.73276293 306.6797585 -109.13530115 306.71078246 -112.53833008 306.74243164 C-132.04086811 306.83751032 -151.63455882 305.55150919 -170.60668945 300.74243164 C-171.62786865 300.48896973 -172.64904785 300.23550781 -173.70117188 299.97436523 C-201.96661289 292.61957086 -224.42111442 276.76498738 -239.39648438 251.5065918 C-249.50906582 233.7595599 -256.73168945 213.0374973 -256.73168945 192.42993164 C-208.71668945 189.45993164 -208.71668945 189.45993164 -159.73168945 186.42993164 C-158.08168945 193.02993164 -156.43168945 199.62993164 -154.73168945 206.42993164 C-148.08287622 221.68950299 -141.19870985 231.09874895 -125.7902832 237.68774414 C-112.34241353 242.31601216 -94.93403267 242.87890147 -81.5246582 237.81274414 C-72.38739018 233.28883802 -65.92928425 227.85048791 -61.73168945 218.42993164 C-59.53977787 211.61065115 -59.93076423 203.77302338 -62.73168945 197.21508789 C-64.37124103 194.28823214 -66.51820958 191.94253041 -68.73168945 189.42993164 C-68.73168945 188.76993164 -68.73168945 188.10993164 -68.73168945 187.42993164 C-69.2524707 187.17598633 -69.77325195 186.92204102 -70.30981445 186.66040039 C-72.15352052 185.72367876 -73.97243202 184.73797905 -75.77856445 183.73071289 C-91.50941004 175.15084391 -108.76681329 171.38030846 -126.0456543 167.14233398 C-164.59107193 157.68684832 -210.27076421 145.59322307 -232.67626953 109.67773438 C-244.51445119 90.01327343 -247.88176179 66.87663946 -242.83325195 44.47680664 C-236.92374187 21.358532 -222.09832142 1.35198893 -201.58862305 -10.84448242 C-147.28442234 -41.99004426 -47.82584316 -44.62642113 0 0 Z " fill="#8CC63F" transform="translate(981.731689453125,278.570068359375)"/>
<path d="M0 0 C30.03 0 60.06 0 91 0 C91.33 38.94 91.66 77.88 92 118 C95.63 114.7 99.26 111.4 103 108 C126.23814041 89.21332155 154.1338277 82.78026478 183.65576172 85.71533203 C200.61846616 87.77516471 216.11153651 94.57602013 228 107 C228.70511719 107.68578125 229.41023438 108.3715625 230.13671875 109.078125 C252.74409795 132.33142932 250.45290192 168.89147627 250.30418181 198.84178567 C250.28518242 203.32600263 250.28364654 207.81022836 250.28010559 212.29447937 C250.27085241 220.75116999 250.24633171 229.20774159 250.21605712 237.66438025 C250.17596568 249.11646557 250.16000376 260.56858439 250.14255047 272.02072239 C250.11450414 290.01390374 250.05469047 308.00683417 250 326 C219.64 326 189.28 326 158 326 C157.96261719 316.27273438 157.92523437 306.54546875 157.88671875 296.5234375 C157.8564261 290.34373601 157.82538979 284.16405291 157.79101562 277.984375 C157.73664929 268.18588979 157.68523139 258.38745558 157.65356445 248.58886719 C157.63048157 241.45074845 157.59697024 234.312765 157.55129844 227.17475379 C157.52750388 223.40050336 157.50868551 219.62638576 157.50238609 215.85206223 C157.49627212 212.28805468 157.47604986 208.7243864 157.44572449 205.16050529 C157.43295447 203.25240421 157.43449679 201.34422345 157.4367218 199.43608093 C157.31497004 188.05551808 156.45611016 175.36546186 148.75 166.375 C141.12502406 159.7897935 133.15496339 157.71418255 123.06640625 158.1171875 C114.19441643 159.35045701 106.94327773 163.30399781 101.125 170.125 C92.41666655 182.37813742 91.70888433 198.5168813 91.68115234 213.04223633 C91.67110672 214.27308456 91.6610611 215.5039328 91.65071106 216.77207947 C91.62536866 220.10181823 91.6083635 223.43139164 91.59528303 226.76118684 C91.57950274 230.25788696 91.55276128 233.75450417 91.5272522 237.25114441 C91.48072517 243.8522162 91.44385613 250.45330406 91.41057932 257.05445451 C91.36839438 265.3182617 91.31309942 273.58197498 91.2578125 281.84570312 C91.15940129 296.56375011 91.08060107 311.28182081 91 326 C60.97 326 30.94 326 0 326 C0 218.42 0 110.84 0 0 Z " fill="#8CC63F" transform="translate(1064,253)"/>
<path d="M0 0 C2.03508849 1.94590012 4.02656207 3.92927845 6 5.9375 C6.74765625 6.68644531 7.4953125 7.43539062 8.265625 8.20703125 C29.99660915 31.26411877 38.76552102 63.29074531 38.1875 94.359375 C37.16931157 113.78980429 33.56735707 131.4129175 25 148.9375 C24.53851562 149.91203125 24.07703125 150.8865625 23.6015625 151.890625 C9.97170771 178.83519343 -15.39134042 197.13862811 -43.34301758 206.91992188 C-57.34402057 211.51282657 -72.32205458 214.0616906 -87.046875 214.140625 C-87.89815979 214.14632507 -88.74944458 214.15202515 -89.62652588 214.15789795 C-91.42499573 214.16729769 -93.22348241 214.1738618 -95.02197266 214.17773438 C-97.70117646 214.18732522 -100.37957313 214.21834829 -103.05859375 214.25 C-118.62374368 214.34634728 -134.28109473 213.01864862 -149.1875 208.25 C-150.00226807 207.99581299 -150.81703613 207.74162598 -151.65649414 207.47973633 C-169.93220549 201.55338948 -185.12541726 192.24715673 -199 178.9375 C-199.83273437 178.16792969 -200.66546875 177.39835938 -201.5234375 176.60546875 C-221.22142949 157.84691945 -233.31084271 129.86346385 -234.3853302 102.712677 C-234.46707618 99.20315622 -234.46842969 95.69767133 -234.4375 92.1875 C-234.43445862 91.44937073 -234.43141724 90.71124146 -234.42828369 89.95074463 C-234.219533 55.55512594 -221.79688041 26.07674851 -197.38208008 1.8996582 C-191.71214317 -3.53189839 -185.72405961 -7.97579239 -179 -12.0625 C-177.87464844 -12.74828125 -176.74929688 -13.4340625 -175.58984375 -14.140625 C-125.78583431 -43.12261919 -43.51550437 -40.18432627 0 0 Z M-128.375 42.5625 C-143.85642062 59.13731148 -143.57428866 81.26584362 -143.12744141 102.5390625 C-142.61796724 116.12504025 -138.24175121 130.41276394 -128.6484375 140.48828125 C-125.33308932 143.40295939 -121.83501261 145.75951411 -118 147.9375 C-117.28457031 148.35386719 -116.56914063 148.77023437 -115.83203125 149.19921875 C-106.43407857 153.80922996 -93.69680137 153.57273532 -83.875 150.3125 C-72.56338319 145.35611218 -63.75515798 136.35081856 -59.02734375 124.953125 C-55.82223288 115.54496687 -54.43453885 105.83683807 -54 95.9375 C-53.95875 95.06996094 -53.9175 94.20242188 -53.875 93.30859375 C-53.43463027 74.84058826 -56.8510781 55.7070118 -69.625 41.6875 C-86.67289707 25.64624067 -111.65839637 26.97370321 -128.375 42.5625 Z " fill="#8CC63F" transform="translate(1590,370.0625)"/>
</svg>
